<svg xmlns="http://www.w3.org/2000/svg" viewBox="0 0 100 90.55"><defs><style>.cls-1{fill:#020202;}</style></defs><g id="Layer_2" data-name="Layer 2"><g id="Layer_1-2" data-name="Layer 1"><path class="cls-1" d="M80,64.75c-.41-.45-.85-.89-1.33-1.37-4.18-4.32-10.08-6.92-13.61-12-.34-.47-.65-1-1-1.5-2.5-5.11-3.9-11.55-10-13.47a10,10,0,0,0-1.78-.55A9.13,9.13,0,0,0,48,36.1c-.34.1-.69.24-1.06.38-3.12,1.13-5.25,3.43-7.1,6-.37.51-.72,1-1.09,1.57-2.16,3.81-4.6,7.85-7.88,10.76A16.52,16.52,0,0,1,29.35,56c-2.09,1.5-4.52,2.57-6.44,4.07-.38.24-.62.42-.62.42a21.78,21.78,0,0,0-5.86,7.43c-.17.34-.31.72-.48,1.1a13.38,13.38,0,0,0-.78,7.4C16.84,85.21,25.62,89,25.62,89s4.66,2.16,12.64,1.37c1.51-.14,2.78-.31,3.87-.45.38,0,.72-.1,1-.13a31.47,31.47,0,0,1,16.65,0l2,.2c2.71.24,5.38.48,5.79.48.83,0,8.47.41,12.92-4.14s5.48-10,3.91-13.85A21.41,21.41,0,0,0,80,64.75Zm-19.39,7.5a16.47,16.47,0,0,1-3.84,4.8,39.31,39.31,0,0,1-4.49,3.46c-1.27.82-2.16,1.34-2.16,1.34s-.89-.48-2.16-1.34a35.89,35.89,0,0,1-4.48-3.46,16.3,16.3,0,0,1-3.84-4.8,6.6,6.6,0,0,1-.72-2.64,5.35,5.35,0,0,1,.55-2.67,6.91,6.91,0,0,1,2.39-2.84,5,5,0,0,1,2.75-.76,6.68,6.68,0,0,1,2.09.35,10.71,10.71,0,0,1,1.78.72,8.29,8.29,0,0,1,1.68,1.06,11.3,11.3,0,0,1,1.68-1.06,9.49,9.49,0,0,1,1.78-.72,7.68,7.68,0,0,1,2.09-.35,5.4,5.4,0,0,1,2.74.76,6.67,6.67,0,0,1,2.4,2.84,6.5,6.5,0,0,1,.48,2.67A7.21,7.21,0,0,1,60.57,72.25ZM15.13,55.57C10.71,54.47,6,50.46,3,44.63-1.59,36-.8,26.68,4.68,23.8s13.6,1.78,18.13,10.42a26.05,26.05,0,0,1,2.64,7.54c.1.61.17,1.23.24,1.81a25,25,0,0,1-.07,4.15c-.07.44-.14.89-.24,1.33a12,12,0,0,1-.89,2.54,7.88,7.88,0,0,1-.9,1.37,7.59,7.59,0,0,1-.85,1,8.47,8.47,0,0,1-1,.79,6,6,0,0,1-2.43,1,6.15,6.15,0,0,1-1.34.17,10.2,10.2,0,0,1-1.34-.1A14,14,0,0,1,15.13,55.57Zm81.93-10.9c-3.8,7.23-10.14,11.68-15.32,11.2a8,8,0,0,1-1.4-.24c-3.26-.72-5.35-3.87-5.83-6.82a9.68,9.68,0,0,0-.2-2c0-.48-.07-1-.07-1.44a24.24,24.24,0,0,1,3-11.13c4.52-8.64,12.64-13.3,18.12-10.42S101.58,36,97.06,44.67Zm-72-25.49C23.65,9.54,27.45,1,33.57.08S45.81,6.25,47.25,15.89,44.88,34.08,38.75,35,26.51,28.82,25.08,19.18Zm32.1,13.19C54,28.73,52.82,22,54.67,14.89,57.14,5.47,64-.91,70,.67s8.84,10.49,6.37,19.91c-1.64,6.27-5.27,11.2-9.25,13.33a11.71,11.71,0,0,1-1.5.65c-2.47,1-5.08.34-7.3-1.13A8.75,8.75,0,0,1,57.18,32.37Z"/></g></g></svg>