<svg id="Layer_1" data-name="Layer 1" xmlns="http://www.w3.org/2000/svg" width="200mm" height="200mm" viewBox="0 0 566.93 566.93"><path d="M327.61,472.2a50,50,0,0,0-6-2.56c-2.65-.75-5.43-1-8.12-1.63-4.32-1-8-.81-11.56,2.76-4.25,4.21-10.37,4.9-16.12,5.48-13.36,1.33-26.77,2.2-40.12,3.65-7.2.78-14.32,2.33-21.47,3.61-3.2.58-6.35,1.49-9.57,2-7.08,1.15-14,1-20.85-3.39-1.83,5.51-5.95,8-11.2,8.93-9,1.57-17.84,1.61-26-3a11.69,11.69,0,0,0-8.51-1.31c-6.23,1.15-12.53,1.19-18.47-1.57-5.77-2.67-8.07-6.45-7.71-12.5s2.92-10.49,8.79-12.28c3-.91,4.51-2.65,5-5.41,1.74-10.22,2.7-19.94-4-29.51-11.88-17.09-15.07-36.39-11.16-56.83a48.32,48.32,0,0,1,1.2-5.91c3-9.07,2.32-18-.62-26.94q-5.25-15.9-10.63-31.76c-2.62-7.72-5.5-15.36-8-23.12-4.81-14.9-4.24-30-.68-45,2-8.3,4.47-16.47,6.62-24.73.91-3.52,1.64-7.09,2.26-10.68a23.8,23.8,0,0,0-2-13.9,99.93,99.93,0,0,1-5.34-16,29.68,29.68,0,0,1,2.09-20.23c2.25-4.74,1.61-9,.22-14-2.51-9.12-3.55-18.67-4.87-28.09a56.66,56.66,0,0,1-.21-11.65c.54-8.32,4.9-10.49,11.7-5.6a100.51,100.51,0,0,1,11.49,10.27c4.28,4.22,8.33,8.7,12.46,13.09a10.1,10.1,0,0,0,8.37,3.22,245.56,245.56,0,0,1,24.72.36c3.83.28,6.39-.57,8.9-3.35,5.65-6.22,11.41-12.36,17.42-18.22a34.8,34.8,0,0,1,8.65-5.91c3.72-1.88,6.76-.5,8,3.5a23,23,0,0,1,1.07,8.14c-1,13.1-.91,26.35-6,38.88-.93,2.31-.59,5.58.22,8.06,4.1,12.62,4.19,24.92-1.9,37-1.21,2.4-.55,4.33.85,6.59,4.22,6.79,8.41,13.64,12,20.77,2.74,5.44,6.38,9.54,12,11.84.82.34,1.6.74,2.43,1,27.44,10,44,30.3,53.53,57,3.73,10.49,5.9,21.53,9.13,32.22,2.31,7.65,4.42,15.53,8,22.62,10.4,20.68,13.24,42.16,9,64.79a112.05,112.05,0,0,0-1.9,15.68c-.41,9.59,3.56,15.39,12.66,18.6,5.2,1.84,10.67,2.86,15.91,4.58,6.55,2.15,13.12,4.32,19.41,7.1a42.46,42.46,0,0,1,10.63,7c9.59,8.43,9.81,20.38.77,29.44-5.8,5.82-13.08,9.27-20.58,12.2-21,8.22-42.92,12.28-65.27,14.29-18.76,1.69-37.58,3.31-56.29-.26a65.91,65.91,0,0,1-15.21-5.15,9.53,9.53,0,0,1-5.75-10.15,9.43,9.43,0,0,1,7.63-8.38c5.81-1.38,11.79-2.72,17.72-2.85,12.92-.3,25.86.54,38.78.25a176.19,176.19,0,0,0,49.59-8.39,69.84,69.84,0,0,0,7-3.08ZM174.27,159.27c-4,1.91-5.62,5.22-3.62,7.38,3.78,4.09,11.84,2.85,14.09-2.34.62-1.45,1-3.85.23-4.85-.95-1.24-3.21-1.47-4.83-2.1-.56,3.6-1,6.35-1.42,9.1l-1.77.09Zm-41.9-2.41c-1.8.93-4.19,1.4-4.86,2.73s.16,3.63,1,5.14a7.89,7.89,0,0,0,9.7,3.62c1.87-.67,4.54-2.32,4.71-3.78.31-2.53-1.57-4.79-4.44-5.58-1,2.55-2,5-3,7.39l-1.76-.11C133.35,163.52,133,160.77,132.37,156.86Z"/></svg>