<svg xmlns="http://www.w3.org/2000/svg" viewBox="0 0 100 94.46"><defs><style>.cls-1{fill:#020202;fill-rule:evenodd;}</style></defs><g id="Layer_2" data-name="Layer 2"><g id="Layer_1-2" data-name="Layer 1"><path class="cls-1" d="M84.43,73C87.3,78.93,82.68,88.26,77.55,91c-7.44,3.92-15.09,4.61-22.52.22-3.31-2-6-1.31-8.85.43-12,7.24-30,0-29.87-13.56a14.08,14.08,0,0,1,4.33-10,32.44,32.44,0,0,1,7-5.57c3.46-2,4.41-5,4.07-8.55-.46-5,1.95-8.59,5.1-11.95,8.78-8.18,25-3.46,28.78-.58s4.07,7.23,3.57,11.3c-.73,5.8,2.28,9.12,6.47,12C79,67,82.48,69,84.43,73ZM28.48,35c3.75,3,8.67,2.69,12.67-.06,8.46-5.82,5.1-21.29,2-26.43C40.8,4.7,35,.83,31.13,1.64c-6.21,1.3-7.76,4.21-9.52,8.92C19,17.72,21.64,29.55,28.48,35Zm-6.75-.9C19.1,30.5,13.3,27.69,9.47,28.44c-5,1-7.56,4.87-8.91,9.72-2,7.35,1.64,18.91,8.92,23.74,4,2.65,8.86,2,12.61-1.13C30,54.25,25.29,38.94,21.73,34.08Zm36.56-.69c4,2.75,8.92,3,12.66.06C77.79,28,80.48,16.19,77.82,9,76.07,4.31,74.52,1.4,68.31.11,64.45-.7,58.63,3.17,56.32,7,53.19,12.1,49.82,27.57,58.29,33.39Zm41.15,3.24c-1.35-4.86-4-8.75-8.91-9.72C86.7,26.16,80.9,29,78.27,32.55c-3.56,4.85-8.3,20.17-.36,26.69,3.75,3.08,8.63,3.78,12.61,1.13C97.8,55.54,101.48,44,99.44,36.63Z"/></g></g></svg>