<svg xmlns="http://www.w3.org/2000/svg" viewBox="0 0 100 90.52"><defs><style>.cls-1{fill:#020202;}</style></defs><g id="Layer_2" data-name="Layer 2"><g id="Layer_1-2" data-name="Layer 1"><path class="cls-1" d="M67,55.52c.52-3.24,2.63-5.59,4.71-5.26s3.34,3.23,2.82,6.47S71.9,62.32,69.82,62,66.48,58.76,67,55.52ZM61.6,65c2-.11,3.48-2.73,3.3-5.85S63,53.65,61,53.76s-3.48,2.73-3.31,5.85S59.6,65.15,61.6,65ZM73,64.18c-6.43-3-20,7.26-15.54,11.67,3.62,3.59,5.25.27,8.77,2.12l.22.13.24.09c3.67,1.53,2.15,4.91,7.23,5.41C80.15,84.21,79.45,67.21,73,64.18Zm10.51-.88c2.17-2.47,2.64-5.59,1.06-7S80,55.8,77.79,58.26s-2.64,5.59-1.05,7S81.36,65.76,83.52,63.3Zm-1.49,4c-2.52,1.85-3.59,4.65-2.41,6.27s4.19,1.42,6.71-.43,3.58-4.65,2.4-6.27S84.54,65.41,82,67.26Zm4.76-19.42c.71-.26,1-1.37.56-2.48s-1.3-1.8-2-1.54-1,1.37-.56,2.48S86.08,48.09,86.79,47.84Zm-2.05,2.39c.61-.38.62-1.46,0-2.41s-1.58-1.41-2.19-1-.62,1.46,0,2.41S84.13,50.62,84.74,50.23ZM88.18,48c-2.55.17-5,5.77-2.85,6.38,1.76.5,1.69-.83,3.12-.86h.1l.09,0c1.42-.16,1.53,1.17,3.21.44C93.92,53,90.73,47.8,88.18,48Zm.47-2.69c-.26,1.15.14,2.21.88,2.37s1.55-.64,1.8-1.79-.15-2.22-.89-2.38S88.9,44.12,88.65,45.28Zm4.93.78c-.66-.3-1.57.28-2,1.3s-.32,2.09.33,2.39,1.57-.28,2-1.3S94.23,46.36,93.58,46.06Zm-1-10.68c.71-.26,1-1.37.56-2.48s-1.3-1.79-2-1.54-1,1.37-.57,2.48S91.89,35.64,92.6,35.38Zm-2,0c-.6-.94-1.58-1.4-2.19-1s-.62,1.47,0,2.42,1.58,1.4,2.19,1S91.17,36.31,90.57,35.36Zm3.42.16c-2.55.17-5,5.77-2.85,6.38,1.76.49,1.69-.84,3.12-.87h.19c1.42-.16,1.53,1.17,3.21.44C99.73,40.57,96.54,35.35,94,35.52ZM96.25,31c-.74-.16-1.54.64-1.79,1.79s.14,2.22.88,2.38,1.55-.64,1.8-1.79S97,31.19,96.25,31Zm3.14,2.58c-.65-.3-1.56.28-2,1.3S97,37,97.7,37.3s1.56-.28,2-1.3S100,33.91,99.39,33.61ZM89.26,17.94c-.63.42-.6,1.56.06,2.53s1.71,1.42,2.34,1,.59-1.56-.07-2.54S89.88,17.51,89.26,17.94Zm1,6.35c.49-.52.23-1.57-.58-2.34s-1.88-1-2.37-.45-.24,1.57.58,2.35S89.76,24.82,90.26,24.29Zm2.77-3c-2.43.79-3.44,6.82-1.19,6.88,1.83.05,1.44-1.22,2.82-1.6l.09,0,.08,0c1.34-.51,1.77.75,3.23-.37C99.84,24.74,95.46,20.46,93,21.26Zm1.24-.64c.75,0,1.33-1,1.29-2.19s-.68-2.11-1.44-2.08-1.34,1-1.3,2.18S93.51,20.64,94.27,20.62Zm2.79,1.45c.71.13,1.45-.66,1.65-1.76s-.2-2.1-.91-2.23-1.45.66-1.65,1.76S96.36,21.94,97.06,22.07Zm-89,1.19c-.7.94-.77,2.08-.17,2.53s1.68,0,2.38-.91.77-2.08.16-2.53S8.76,22.31,8.06,23.26Zm5.87,1.86c.45-1,.29-2.09-.37-2.39s-1.56.3-2,1.33-.29,2.09.37,2.38S13.47,26.14,13.93,25.12ZM16.66,20C16.1,18.22,15,19,14.21,17.84l-.05-.08-.06-.07c-.92-1.09.12-1.92-1.42-2.92-1.88-1.22-4.46,4.33-2.91,6.36S17.36,22.1,16.66,20ZM7.27,22.23c1.1-.43,1.76-1.35,1.49-2.06s-1.39-.92-2.49-.5S4.51,21,4.78,21.73,6.17,22.66,7.27,22.23Zm.13-3.57c1.11-.18,1.92-.9,1.8-1.61S8.1,15.9,7,16.08s-1.91.9-1.8,1.61S6.29,18.83,7.4,18.66ZM8.63,37.18c0-1.17-.61-2.13-1.37-2.13s-1.37,1-1.38,2.13.61,2.13,1.37,2.14S8.62,38.36,8.63,37.18ZM10,33.5c-.7.15-1.08,1.16-.85,2.26s1,1.86,1.71,1.71,1.08-1.17.84-2.26S10.71,33.35,10,33.5Zm-4,1c2.46.71,6.69-3.7,4.87-5-1.49-1.07-1.88.2-3.23-.26l-.09,0-.09,0c-1.39-.34-1-1.62-2.87-1.52C2.34,27.73,3.55,33.73,6,34.45Zm-1.38-.17c-.64-.41-1.67.07-2.3,1.07s-.62,2.13,0,2.54,1.67-.08,2.3-1.07S5.26,34.68,4.62,34.28ZM3.13,31.5C2.62,31,1.56,31.23.78,32s-1,1.86-.51,2.37,1.57.27,2.36-.53S3.64,32,3.13,31.5ZM13.69,52.14c.66-.38.71-1.52.12-2.54s-1.6-1.53-2.26-1.15S10.85,50,11.44,51,13,52.52,13.69,52.14Zm2.2-3.42c.53-.49.35-1.55-.41-2.38s-1.8-1.1-2.33-.62-.35,1.56.41,2.38S15.36,49.21,15.89,48.72Zm-5.72-.16c2.48-.62,3.91-6.57,1.67-6.78-1.82-.18-1.52,1.12-2.92,1.4H8.83l-.09,0c-1.37.41-1.71-.88-3.24.14C3.62,44.6,7.69,49.18,10.17,48.56Zm-1.28.55c-.76,0-1.41.91-1.45,2.08S8,53.35,8.73,53.38s1.41-.91,1.45-2.09S9.65,49.14,8.89,49.11ZM6.2,47.46c-.7-.18-1.49.55-1.77,1.64s.06,2.11.76,2.29S6.68,50.84,7,49.75,6.9,47.64,6.2,47.46ZM24.93,60c.25-.72-.45-1.61-1.56-2s-2.22-.12-2.47.59.45,1.61,1.56,2S24.68,60.73,24.93,60Zm-2.72-3c1.11.13,2.08-.34,2.17-1s-.75-1.41-1.86-1.54-2.08.33-2.17,1S21.09,56.9,22.21,57Zm-2.29,2.55c1.49-2.08-1.29-7.54-3.13-6.25-1.5,1-.43,1.84-1.31,3l-.06.07-.05.08c-.78,1.2-1.87.45-2.37,2.21C12.38,60.83,18.44,61.67,19.92,59.59Zm-.61,1.25c-.59.47-.48,1.6.25,2.52s1.81,1.29,2.41.82.47-1.6-.26-2.52S19.9,60.37,19.31,60.84Zm-3.12.49c-.64.32-.77,1.39-.28,2.4S17.33,65.29,18,65s.77-1.39.28-2.4S16.84,61,16.19,61.33Zm17.35,5c-1.15-.26-2.21.13-2.38.87S31.79,68.7,33,69s2.21-.14,2.38-.88S34.69,66.54,33.54,66.28Zm-1.27-.83c1.12,0,2-.58,2-1.3s-.91-1.31-2-1.31-2,.57-2,1.29S31.15,65.44,32.27,65.45Zm-2,2.8c1.23-2.24-2.16-7.33-3.84-5.84-1.37,1.22-.21,1.88-1,3.11l-.05.07a.36.36,0,0,1,0,.09c-.62,1.28-1.8.66-2.09,2.47C23,70.37,29.08,70.49,30.3,68.25Zm-.46,1.31c-.53.54-.29,1.65.55,2.48s2,1.07,2.48.53.29-1.65-.55-2.48S30.38,69,29.84,69.56Zm-3,.86c-.61.39-.61,1.47,0,2.41s1.59,1.39,2.2,1,.6-1.47,0-2.41S27.41,70,26.81,70.42Zm19.32,6.31c-1.11-.39-2.22-.14-2.48.57s.44,1.62,1.55,2,2.22.14,2.48-.57S47.24,77.13,46.13,76.73Zm-3-2.53c-.09.71.73,1.41,1.85,1.55s2.08-.32,2.17-1-.73-1.41-1.84-1.55S43.21,73.48,43.12,74.2Zm-.45,4.09c1.49-2.08-1.25-7.54-3.1-6.26-1.51,1-.44,1.84-1.33,3l-.06.07,0,.08c-.78,1.19-1.87.43-2.38,2.19C35.12,79.49,41.18,80.36,42.67,78.29Zm-.62,1.24c-.6.47-.49,1.6.24,2.53s1.8,1.3,2.4.83.49-1.6-.24-2.52S42.65,79.07,42.05,79.53ZM38.93,80c-.65.31-.78,1.39-.29,2.4S40.05,84,40.7,83.67s.78-1.39.29-2.4S39.58,79.7,38.93,80Zm15.37.14c-.34,1.13,0,2.22.69,2.44s1.59-.52,1.93-1.65,0-2.22-.69-2.44S54.64,79,54.3,80.15Zm-3.53,1c-.09,1.12.43,2.07,1.14,2.13s1.38-.8,1.46-1.92-.42-2.07-1.14-2.13S50.86,80,50.77,81.15ZM56,83.53c-2.14-1.39-7.47,1.62-6.1,3.4,1.12,1.46,1.86.35,3,1.18l.07.06.09,0c1.23.72.52,1.85,2.31,2.28C57.6,91,58.17,84.92,56,83.53Zm3.79.19c.89-.77,1.21-1.86.71-2.44s-1.62-.4-2.51.37-1.21,1.86-.71,2.43S58.92,84.49,59.81,83.72Zm-.73,1.34c-1,.54-1.5,1.48-1.15,2.12s1.42.71,2.4.17,1.51-1.49,1.16-2.12S60.07,84.52,59.08,85.06ZM80.67,12.14c1.12.38,2.22.11,2.46-.61s-.46-1.61-1.58-2-2.22-.11-2.46.61S79.55,11.76,80.67,12.14Zm3,2.49c.08-.72-.76-1.4-1.87-1.52s-2.08.35-2.16,1.07.76,1.4,1.87,1.52S83.64,15.35,83.72,14.63Zm.38-4.1c-1.46,2.1,1.38,7.52,3.21,6.21,1.49-1.07.41-1.84,1.27-3l.06-.07,0-.08c.76-1.21,1.87-.47,2.35-2.24C91.63,9.2,85.56,8.43,84.1,10.53Zm.6-1.25c.59-.48.46-1.61-.28-2.53S82.6,5.48,82,6s-.46,1.61.28,2.52S84.11,9.75,84.7,9.28Zm3.11-.53c.65-.32.76-1.4.25-2.4S86.63,4.8,86,5.12s-.76,1.4-.26,2.4S87.17,9.07,87.81,8.75ZM30.3,9.69c1.12.38,2.22.11,2.47-.61s-.47-1.61-1.59-2S29,7,28.72,7.71,29.19,9.31,30.3,9.69Zm3.05,2.49c.08-.72-.75-1.4-1.87-1.52s-2.08.35-2.16,1.07.76,1.39,1.87,1.52S33.27,12.89,33.35,12.18Zm.39-4.1c-1.46,2.1,1.37,7.52,3.2,6.21,1.49-1.07.41-1.85,1.28-3l.06-.07a.59.59,0,0,1,0-.08c.76-1.21,1.87-.47,2.35-2.24C41.26,6.75,35.2,6,33.74,8.08Zm.59-1.26c.59-.47.47-1.6-.28-2.52S32.23,3,31.64,3.51s-.46,1.61.28,2.52S33.75,7.3,34.33,6.82Zm3.11-.52c.65-.33.76-1.4.26-2.4s-1.44-1.55-2.08-1.23-.76,1.4-.25,2.4S36.8,6.62,37.44,6.3ZM40,15c-.24.72.47,1.6,1.58,2s2.22.11,2.47-.61-.47-1.61-1.59-2S40.23,14.23,40,15Zm2.76,2.95c-1.11-.13-2.08.35-2.16,1.07s.76,1.4,1.87,1.52,2.09-.35,2.17-1.07S43.86,18,42.74,17.9Zm9.19-1.74c.59-2.17-5.47-2.94-6.93-.84s1.37,7.52,3.2,6.21c1.49-1.07.41-1.84,1.28-3l.06-.07s0-.05,0-.08C50.34,17.19,51.45,17.93,51.93,16.16Zm-6.34-2.09c.59-.48.47-1.61-.28-2.53s-1.82-1.27-2.41-.79-.46,1.61.28,2.52S45,14.54,45.59,14.07Zm3.12-.53c.64-.33.75-1.4.25-2.4s-1.44-1.55-2.08-1.23-.76,1.4-.25,2.4S48.06,13.86,48.71,13.54Zm23.1-6.21c-.32-.69-1.45-.84-2.52-.34s-1.67,1.46-1.35,2.14,1.44.84,2.51.34S72.13,8,71.81,7.33Zm1.74,4.1c.9-.68,1.26-1.7.83-2.27s-1.52-.48-2.41.2-1.26,1.69-.82,2.27S72.66,12.11,73.55,11.43ZM71.82,5.94c.39,2.52,6.19,4.48,6.61,2.27.33-1.8-1-1.62-1.14-3,0,0,0-.06,0-.09s0-.06,0-.09c-.29-1.4,1-1.63.15-3.24C76.34-.23,71.42,3.41,71.82,5.94Zm-2.73-.23c1.17.15,2.2-.34,2.29-1.1S70.6,3.13,69.44,3s-2.2.34-2.29,1.09S67.92,5.56,69.09,5.71Zm1.82-3.08C72,3,73,2.76,73.27,2.08S72.84.55,71.79.18,69.68.05,69.44.72,69.86,2.26,70.91,2.63ZM19.43,11.88c-.32-.68-1.44-.83-2.51-.34S15.24,13,15.56,13.69s1.45.84,2.52.34S19.75,12.57,19.43,11.88ZM21.18,16c.89-.69,1.26-1.7.82-2.27s-1.51-.49-2.41.19-1.25,1.7-.82,2.27S20.29,16.67,21.18,16Zm-1.74-5.5c.4,2.53,6.19,4.49,6.61,2.27.34-1.8-1-1.61-1.14-3v-.1a.46.46,0,0,1,0-.09c-.28-1.4,1-1.62.16-3.23C24,4.33,19,8,19.44,10.49Zm-2.72-.23c1.17.15,2.19-.34,2.29-1.09s-.78-1.48-2-1.63-2.2.35-2.29,1.1S15.55,10.12,16.72,10.26Zm1.82-3.07c1.06.37,2.11.13,2.35-.55s-.42-1.53-1.48-1.91-2.11-.13-2.35.55S17.48,6.81,18.54,7.19Zm40.09,6.65c.72-.93.82-2.06.22-2.53s-1.67-.08-2.39.85-.82,2.07-.22,2.53S57.91,14.77,58.63,13.84Zm3.65.32c.48-1,.34-2.09-.31-2.39s-1.57.26-2,1.27-.34,2.09.31,2.4S61.8,15.17,62.28,14.16Zm2.85-5.1c-.52-1.75-1.61-1-2.4-2.18l0-.07-.06-.07c-.89-1.12.17-1.92-1.35-2.95C59.41,2.52,56.71,8,58.22,10.07S65.78,11.22,65.13,9.06Zm-9.44,2.06c1.11-.41,1.8-1.31,1.54-2s-1.37-1-2.48-.56-1.79,1.31-1.53,2S54.58,11.52,55.69,11.12Zm.21-3.57C57,7.4,57.84,6.7,57.74,6s-1.08-1.17-2.19-1-1.93.86-1.83,1.57S54.79,7.7,55.9,7.55Z"/></g></g></svg>