<svg xmlns="http://www.w3.org/2000/svg" viewBox="0 0 51.19 100"><defs><style>.cls-1{fill:#020202;}</style></defs><g id="Layer_2" data-name="Layer 2"><g id="Layer_1-2" data-name="Layer 1"><path class="cls-1" d="M9.44,95.67c-.2-.65,0-1.28.41-1.4s.91.3,1.11,1,0,1.29-.41,1.41S9.63,96.32,9.44,95.67Zm4.34.26c.41.22,1-.11,1.34-.74s.29-1.32-.11-1.54-1,.11-1.35.74S13.38,95.71,13.78,95.93ZM12,93c-.45,0-.79.64-.74,1.35s.46,1.26.91,1.23.79-.64.75-1.35S12.43,93,12,93Zm1,2.9c-1.52-.33-3.9,2.52-2.74,3.24,1,.58,1.13-.21,2,0h.05s0,0,.06,0c.86.14.7.93,1.8.79C15.43,99.8,14.45,96.22,12.93,95.9Zm2.08.21c-.45.52-.54,1.17-.21,1.45s1,.11,1.41-.42.53-1.16.2-1.45S15.45,95.59,15,96.11Zm-14.85-8c-.31.32-.15,1,.34,1.42s1.13.61,1.44.29.15-1-.34-1.43S.47,87.83.16,88.15Zm4.22-.51c.46,0,.82-.6.8-1.32S4.77,85,4.31,85s-.82.61-.8,1.33S3.92,87.66,4.38,87.64Zm-1.59.51c.39-.25.38-1,0-1.54s-1-.87-1.41-.62-.38,1,0,1.54S2.42,88.4,2.79,88.15ZM3.63,88c-1.49.47-2.13,4.13-.77,4.18,1.12,0,.88-.74,1.73-1h0l.06,0c.81-.3,1.07.46,2-.21C7.75,90.18,5.11,87.55,3.63,88Zm2.92-1.91c-.43-.07-.88.39-1,1.07s.12,1.27.55,1.35.88-.38,1-1.06S7,86.19,6.55,86.11Zm-3.48-11c.3-.32.15-1-.34-1.43S1.6,73,1.29,73.35s-.15,1,.34,1.43S2.76,75.38,3.07,75.07Zm2.45-2.22c.46,0,.82-.6.8-1.32s-.41-1.29-.87-1.28-.82.6-.8,1.32S5.05,72.86,5.52,72.85Zm-1.6.5c.39-.25.38-.94,0-1.54s-1-.87-1.41-.61-.38.94,0,1.54S3.55,73.6,3.92,73.35Zm.85-.12c-1.48.47-2.12,4.13-.77,4.18,1.12,0,.88-.75,1.73-1h.06s0,0,0,0c.81-.29,1.08.47,2-.2C8.88,75.38,6.24,72.76,4.77,73.23Zm2.91-1.91c-.43-.08-.88.39-1,1.06s.12,1.28.55,1.36.88-.39,1-1.06S8.1,71.4,7.68,71.32ZM9,58.26c.41-.15.54-.79.32-1.42s-.76-1-1.17-.89-.56.78-.32,1.42S8.54,58.41,9,58.26Zm3.17-.91c.42.19,1-.18,1.3-.83s.2-1.34-.22-1.53-1,.18-1.3.83S11.71,57.17,12.12,57.35Zm-1.64-.24c.45-.06.75-.69.65-1.39s-.54-1.24-1-1.18-.75.69-.65,1.39S10,57.17,10.48,57.11Zm.24,3.57h.11c.87.1.75.89,1.85.68,1.35-.27.14-3.78-1.4-4s-3.73,2.77-2.53,3.43C9.73,61.31,9.87,60.51,10.72,60.68Zm2.64-3.24c-.41.55-.45,1.2-.1,1.46s1,0,1.37-.51.45-1.2.1-1.46S13.76,56.89,13.36,57.44ZM27.07,36.33c.41-.14.55-.78.32-1.42s-.75-1-1.16-.89-.56.78-.32,1.42S26.66,36.48,27.07,36.33Zm3.18-.91c.42.2,1-.18,1.3-.83s.19-1.34-.22-1.53-1,.18-1.3.83S29.82,35.23,30.25,35.42Zm-1.65-.24c.46-.06.76-.68.65-1.39s-.53-1.23-1-1.18-.75.69-.65,1.4S28.15,35.24,28.6,35.18Zm.24,3.57s0,0,.06,0H29c.86.09.75.89,1.85.67,1.34-.26.13-3.78-1.41-4s-3.72,2.78-2.52,3.43C27.86,39.38,28,38.58,28.84,38.75Zm4-3.75c-.35-.26-1,0-1.37.51s-.46,1.2-.1,1.46,1,0,1.37-.51S33.2,35.26,32.86,35ZM41.8,18.85c.42-.08.67-.69.56-1.36s-.57-1.15-1-1.07-.69.68-.56,1.35S41.37,18.93,41.8,18.85Zm4.71-1c.41-.59.43-1.28.05-1.54s-1,0-1.43.59-.43,1.28,0,1.54S46.1,18.48,46.51,17.9Zm-3,.07c.46,0,.86-.55.89-1.27s-.32-1.31-.78-1.33-.85.54-.89,1.26S43,17.94,43.5,18Zm.74.4c-1.47-.49-4.14,2.09-3.07,2.93.88.69,1.14-.08,1.95.24l.06,0h.06c.83.24.59,1,1.71,1C46.32,22.52,45.73,18.86,44.24,18.37Zm2,.42c-.51.47-.67,1.11-.36,1.43s1,.2,1.44-.27.65-1.1.35-1.42S46.78,18.32,46.29,18.79ZM45.13,3.64c.42-.12.61-.75.41-1.4s-.68-1.09-1.1-1S43.83,2,44,2.68,44.71,3.77,45.13,3.64ZM48.36,3c.41.21,1-.12,1.35-.75S50,.88,49.6.66s-1,.12-1.35.74S48,2.72,48.36,3Zm-1.63-.36c.46,0,.79-.64.74-1.35S47,0,46.56,0s-.79.64-.74,1.35S46.27,2.61,46.73,2.59Zm.79.31C46,2.57,43.61,5.42,44.78,6.14c.95.58,1.13-.2,2,0l.06,0h.06c.85.15.69.93,1.8.8C50,6.82,49,3.23,47.52,2.9ZM51,2.69c-.33-.28-1-.1-1.41.43s-.53,1.16-.2,1.45,1,.1,1.4-.43S51.32,3,51,2.69ZM32.06,23.49c.41-.15.56-.79.32-1.42s-.75-1-1.16-.89-.56.78-.32,1.42S31.65,23.64,32.06,23.49Zm4.27-3.27c-.42-.2-1,.18-1.3.83s-.21,1.34.22,1.53,1-.18,1.3-.83S36.74,20.41,36.33,20.22Zm-2.74,2.12c.46-.06.76-.69.65-1.39s-.53-1.24-1-1.18-.75.69-.65,1.39S33.14,22.4,33.59,22.34Zm.81.25c-1.54-.23-3.72,2.77-2.52,3.43,1,.52,1.12-.28,2-.11H34c.86.1.75.89,1.85.68C37.15,26.33,35.93,22.82,34.4,22.59Zm3.45-.43c-.35-.27-1,0-1.37.51s-.46,1.2-.1,1.46,1,0,1.37-.51S38.2,22.42,37.85,22.16Zm-3-12.29c.39-.21.42-.86.09-1.46s-.91-.9-1.29-.69-.42.86-.09,1.46S34.47,10.08,34.85,9.87Zm3-1.39c.44.13,1-.34,1.15-1S39,6.11,38.55,6s-1,.33-1.16,1S37.4,8.36,37.85,8.48Zm-1.68,0c.45-.13.63-.8.42-1.48s-.73-1.14-1.17-1-.63.8-.42,1.49S35.74,8.63,36.17,8.49Zm-1.11,3.9c1,.36,1.07-.45,1.93-.42h.12c.87,0,.89.77,1.93.38,1.28-.47-.47-3.74-2-3.73S33.77,11.94,35.06,12.39Zm4.15-2.56c.39.2,1-.12,1.28-.72s.25-1.26-.13-1.46-1,.11-1.28.72S38.82,9.62,39.21,9.83ZM18.57,46.31c.43,0,.74-.6.7-1.29s-.45-1.2-.88-1.17-.76.6-.7,1.29S18.14,46.33,18.57,46.31Zm4.77-.46c.47-.54.56-1.23.21-1.53s-1-.09-1.48.46-.54,1.22-.2,1.52S22.88,46.39,23.34,45.85Zm-3-.24c.46.07.9-.45,1-1.16s-.19-1.34-.64-1.4-.91.45-1,1.16S19.89,45.55,20.35,45.61Zm-.71,3.52.05,0,.06,0c.81.32.49,1.06,1.59,1.15,1.35.1,1.13-3.61-.28-4.25s-4.34,1.67-3.35,2.62C18.51,49.47,18.87,48.73,19.64,49.13Zm2.89-1c.26.34.93.3,1.46-.11s.78-1,.5-1.38-.92-.3-1.46.11S22.27,47.74,22.53,48.09ZM10.07,82.77c.4-.16.53-.8.29-1.44s-.77-1-1.17-.87-.55.8-.3,1.44S9.65,82.93,10.07,82.77ZM13,80.29c-.29.65-.18,1.34.24,1.52s1-.19,1.29-.85.18-1.34-.24-1.52S13.28,79.63,13,80.29Zm-2.43.14c.1.71.56,1.23,1,1.16s.74-.69.63-1.4-.56-1.23-1-1.16S10.44,79.72,10.56,80.43Zm3.3,5.39c1.33-.28.06-3.77-1.48-4S8.7,84.67,9.92,85.29c1,.52,1.1-.28,2-.13H12C12.86,85.25,12.77,86.05,13.86,85.82Zm1.88-3c.4-.55.44-1.2.09-1.47s-1,0-1.37.53-.44,1.21-.09,1.46S15.34,83.36,15.74,82.82ZM12.27,68.68c.43,0,.79-.54.8-1.23s-.34-1.23-.79-1.24-.8.55-.8,1.23S11.82,68.67,12.27,68.68Zm4.8-.08c.51-.5.66-1.18.34-1.5s-1-.18-1.51.33-.66,1.19-.33,1.51S16.57,69.12,17.07,68.6Zm-3.49-1.92c-.16.7.07,1.35.53,1.44S15,67.75,15.2,67s-.08-1.35-.52-1.45S13.74,66,13.58,66.68ZM11.22,71c.74.83,1.14.14,1.88.58,0,0,0,0,.05,0l0,0c.78.39.4,1.09,1.5,1.28,1.35.22,1.44-3.5.08-4.25S10.31,70,11.22,71Zm5.48-1.53c-.57.36-.85,1-.62,1.33s.89.37,1.47,0,.84-1,.61-1.33S17.27,69.08,16.7,69.45ZM19.79,55c-.43-.08-.88.4-1,1.07s.11,1.27.54,1.35.88-.38,1-1.06S20.22,55,19.79,55Zm4.28,3.21c.6-.41.86-1.05.6-1.43s-1-.35-1.55.06-.85,1.05-.59,1.43S23.48,58.58,24.07,58.17Zm-1.81-3.38c-.43-.18-1,.21-1.28.87s-.16,1.34.26,1.52,1-.21,1.28-.87S22.68,55,22.26,54.79Zm-.46,3c-1.21-1-4.62.49-3.92,1.65.59.95,1.1.33,1.75.91a.07.07,0,0,0,.05,0l0,0c.7.52.2,1.16,1.25,1.53C22.26,62.43,23,58.79,21.8,57.81Zm1.76,1.13c-.63.26-1,.8-.85,1.19s.81.53,1.44.27,1-.79.85-1.2S24.19,58.67,23.56,58.94ZM30,43.71c-.43-.07-.87.42-1,1.09s.16,1.28.59,1.35.86-.42,1-1.09S30.38,43.78,30,43.71Zm4.38,3.08c.57-.42.83-1.07.55-1.44s-1-.32-1.54.1-.82,1.08-.55,1.44S33.75,47.21,34.33,46.79Zm-1.94-3.32c-.43-.17-1,.24-1.24.9s-.12,1.35.31,1.51,1-.24,1.24-.9S32.83,43.63,32.39,43.47Zm-.35,3c-1.23-.94-4.6.63-3.86,1.78.61.94,1.11.3,1.78.86l.05,0s0,0,0,0c.72.49.23,1.14,1.29,1.48C32.64,51.11,33.28,47.44,32,46.49Zm1.79,1.08c-.61.27-1,.83-.8,1.23s.84.5,1.45.22,1-.84.8-1.24S34.45,47.28,33.83,47.57ZM37,30.32c-.43,0-.75.6-.69,1.29s.44,1.21.88,1.17.74-.61.69-1.29S37.44,30.28,37,30.32Zm5,2c.47-.55.56-1.24.2-1.53s-1-.1-1.47.44-.56,1.24-.2,1.53S41.5,32.88,42,32.33Zm-3.63-1.65c-.1.71.18,1.34.64,1.41s.91-.46,1-1.17-.18-1.33-.64-1.4S38.43,30,38.33,30.68Zm1.35,1.88c-1.42-.64-4.34,1.65-3.36,2.6.8.77,1.15,0,1.92.43l0,0,.06,0c.81.32.49,1.06,1.6,1.15C41.3,36.91,41.09,33.2,39.68,32.56Zm2,.64c-.55.41-.76,1-.5,1.38s.92.29,1.46-.12.76-1,.5-1.38S42.19,32.78,41.65,33.2Z"/></g></g></svg>