<svg xmlns="http://www.w3.org/2000/svg" viewBox="0 0 71.08 100"><defs><style>.cls-1{fill:#020202;}</style></defs><g id="Layer_2" data-name="Layer 2"><g id="Layer_1-2" data-name="Layer 1"><g id="dog_paw16" data-name="dog paw16"><path class="cls-1" d="M70.55,68.27c-1.36-3.59-5.6-4.08-6.7-4.14a.41.41,0,0,1-.39-.26L57,51.94c-.71-1.36-5.51-7.26-5.41-7.58a25.55,25.55,0,0,1,1.46-2.17c.84-1.37,0-2.18-.85-3.54s-3.85-6.22-3.53-6.45A18.11,18.11,0,0,0,50,29a.47.47,0,0,1,.91,0h0a.46.46,0,0,0,.78.19.36.36,0,0,1,.13-.09l2.53-1.33,3.89-2.17s.06,0,.09-.07l2.21-2A2.27,2.27,0,0,0,61,20.83l-2.36-4.6s0-.07-.07-.1A53.62,53.62,0,0,0,44.89,5.05C39.05,1.84,31.21.74,28.72.12,27-.3,23,.48,20.68,1a2.22,2.22,0,0,0-1.72,2,13.71,13.71,0,0,1-.65,3.6c-.61,1.46,1.23,5.09.42,5.09s-.32,1.45,0,1.55,2.66-.45,2.86.07-.94,1.88-1.46,2.59-.94,6.35-.62,7.68a10.91,10.91,0,0,1,0,3.43l.07.46s-2.4,2.91-2.69,3.21a23.46,23.46,0,0,0-1.43,2.43.19.19,0,0,0,0,.13l-.58,3.17a.24.24,0,0,1-.07.16l-2.62,4s0,.07-.07.13a32,32,0,0,0-.91,10.73c.39,6.19-.35,7.65-.48,7.87,0,0,0,0,0,.07-.22.55-2.23,5.83-1.84,8.59s-.94,14.22-1,15a.12.12,0,0,1,0,.1c-.13.42-1.23,3.7-2.79,5.06a38.87,38.87,0,0,1-3.47,2.65.4.4,0,0,0-.13.13A14.23,14.23,0,0,0,.07,93.2v.45c0,.06,0,.1,0,.13-.07.23-.2.94,1.26.55.42-.1.42-.1.52.19s1-.42,2.91.43c1.27.55,1.69.16,1.82-.13a.49.49,0,0,1,.42-.3,7.69,7.69,0,0,0,1.2-.09c.52-.1.71.52,2,.52s.94-.72,1.36-1.14a15.89,15.89,0,0,1,2.2-1.36.41.41,0,0,1,.36,0,11.59,11.59,0,0,0,3,.45,14.13,14.13,0,0,0,4-.32c.61-.1,1.88-.2,2.91-.33a4.11,4.11,0,0,1,1.92.42c.09.07.19.13.22.26L26.54,94a.43.43,0,0,0,.49.29c.71-.06,2.33-.19,3-.29a21.11,21.11,0,0,1,2.5.2,2.51,2.51,0,0,0,1-.2A.47.47,0,0,1,34,94l1.26,1a.17.17,0,0,0,.13.07l.39.16.13,0,1.68.16a.57.57,0,0,1,.36.2l.68,1,0,0a6.44,6.44,0,0,1,1.23,1.84c0,.39,1.27.33,1.43.33h0l1.2-.16a.42.42,0,0,1,.39.13,1.92,1.92,0,0,0,.91.48,7.42,7.42,0,0,0,2.23-.48s.1,0,.13,0l2-.09a.47.47,0,0,1,.42.22,6.75,6.75,0,0,1,.49.91c.09.42,1.23-.32,1.45-.32a.15.15,0,0,1,.1.06.46.46,0,0,0,.75-.1l1-1.71a.37.37,0,0,1,.19-.2l1.88-.94a.56.56,0,0,1,.49,0c.65.46,3,1.53,8.62-.68C70.36,93.52,72.11,72.42,70.55,68.27ZM21.68,81.17a9.46,9.46,0,0,1-.52,1.07,11.11,11.11,0,0,0-.61,1.14,1.1,1.1,0,0,0,0,.74,2.15,2.15,0,0,1,0,1.1c-.13.46-.45.42-.91.42a3.35,3.35,0,0,0-1.42.17,1.57,1.57,0,0,1-.52.06,3.07,3.07,0,0,1-2-1.13l0,0v0a13.29,13.29,0,0,0,.52-1.75v-.61L16,81.14l.94-.32.52-1.33,1.4-3.73.06.1c.1.16,2.3,4,2.4,4.15s.29,1.1.32,1.16Z"/></g></g></g></svg>