<svg id="Layer_1" data-name="Layer 1" xmlns="http://www.w3.org/2000/svg" width="200mm" height="200mm" viewBox="0 0 566.93 566.93"><path d="M305.23,334.45C296,343.57,291,355,289.49,367.9c-3,25.63.77,50.86,5.25,76a10.44,10.44,0,0,0,6.77,8.52,15.75,15.75,0,0,1,6.68,5.67c5.49,8.3,2.22,15.82-7.56,17.08a97.83,97.83,0,0,1-17.46.29c-8.85-.47-12.57-3.53-14.65-12.26-3-12.64-5.38-25.43-8.48-38-4.76-19.4-9.56-38.81-15-58-3.74-13.13-6.1-26.25-5-39.91.16-2,0-4.1,0-6.15L238.7,321c-1.16,7.59-2.31,15.19-3.55,23.32-6.21-1.41-12.29-2.85-18.4-4.18-11.35-2.48-22.74-3.2-34.22-.73a38.31,38.31,0,0,0-22.91,14.08c-1.75,2.23-3.51,4.46-5.1,6.8-8.07,11.88-17.8,22.15-30.25,29.36-11,6.38-15.71,16-15.86,28.11a137.32,137.32,0,0,0,1.1,20.89c.38,2.64,3.15,5.06,5.12,7.31,1.82,2.09,4.63,3.47,6,5.77,3.77,6.44,1.12,12.92-6.24,13.88-6.83.89-13.91.44-20.83-.05-4.29-.31-6.69-3.72-7.38-7.78-1-5.9-2.25-11.88-2.22-17.81.09-17.31.67-34.61,1.3-51.91a17.23,17.23,0,0,1,2.27-8.09c9.27-15,10-31.91,10.65-48.74.34-8.81-.06-17.67-.47-26.49-1.06-23,.81-45.33,12.79-65.75,2.34-4,1.3-7.87.13-12-4.12-14.55-9.51-29-11.5-43.84-4.19-31.33,2.27-60.25,26.07-83,15.35-14.67,33.66-22,55.22-18.42a37.2,37.2,0,0,1,12.07,4.43c6.24,3.54,8.44,10,6.18,15.76s-8,8.79-15.2,7.42-14.47-2.25-21.73.06c-16.08,5.11-26,16.5-31.31,31.92-6.35,18.34-5.49,36.74,1.41,54.81a62.11,62.11,0,0,0,5.7,10.5c2.3,3.66,5.38,4.49,9.85,3.34,14.49-3.72,29-7.74,43.72-10.08,19.68-3.12,39.17-.37,58.33,5,15,4.2,25.22-2,28.07-17.33.65-3.52-.37-7.54-1.37-11.12-1.12-4-3.22-7.66-4.67-11.56-2.71-7.33-2.42-14.53.34-21.95,1.25-3.36,1.16-7.41.9-11.09-.87-12.43-2.46-24.81-2.94-37.24-.14-3.53,1.57-8.54,4.19-10.44,3.77-2.73,8,.84,11,3.56,6.46,5.76,12.7,11.78,18.75,18,3.18,3.25,6.52,4.35,11.09,4.17,8.12-.33,16.28.44,24.41.27a11.45,11.45,0,0,0,6.9-2.78c4.91-4.49,9.23-9.61,14.06-14.2a57.26,57.26,0,0,1,9.45-7.32c6.21-3.82,10.9-2.22,11.44,5,.8,10.7.06,21.52-.23,32.29a26.64,26.64,0,0,1-1.5,7.33,20,20,0,0,0,.86,14.56,26,26,0,0,1-1.46,23.25c-13.6,23.95-12.18,49.56-9.94,75.49a234.87,234.87,0,0,1,.65,28.45c-.47,13.64-5.13,26.07-12.85,37.3-3,4.39-6.14,8.74-9.49,12.88-5.5,6.8-6.83,14.3-4.3,22.54,2.84,9.23,5.59,18.49,8.72,27.62,5.15,15.05,4.52,29.43-3.83,43.27-3,5-5,10.7-8.65,15.15-3.21,3.94-7.57,7.75-12.22,9.56-8.52,3.32-15.65-2-16.47-11.17a23.64,23.64,0,0,1,8.36-20.95c9.69-8.53,10.42-15,2.87-25.51-6.72-9.32-13.4-18.68-20.42-27.78-2.31-3-2.37-5.55-1-8.69C302,342.39,303.56,338.41,305.23,334.45Zm-5.42-193-8.39,4c1.62,3,2.74,6.44,5,8.73a9.55,9.55,0,0,0,7.31,2.21c3.13-.51,6-2.61,9-4-2.15-2.7-4.29-5.4-6.46-8.09-.05-.07-.31,0-.18,0-1.15,3.41-2.27,6.69-3.38,10l-2-.28C300.49,150.31,300.21,146.67,299.81,141.41ZM344.24,144a32.31,32.31,0,0,0-3.59,2.79c-4.37,4.58-3.45,8.53,2.73,9.27a18.32,18.32,0,0,0,11.09-2.33c2.34-1.44,3.1-5.42,4.56-8.27-2.7-.9-5.4-1.81-8.12-2.67-.18-.05-.5.35-.27.18-.49,3.93-.94,7.45-1.38,11l-2,0C346.34,150.85,345.4,147.79,344.24,144Zm-26.07,21.66-.48,1.49,6.94,8.32a67.18,67.18,0,0,0,6.09-6.34c.44-.58-.54-3.28-1-3.31C325.89,165.5,322,165.61,318.17,165.61Z"/><path d="M227.59,347.18a83.71,83.71,0,0,1-16.37,29c-4.66,5.44-9.61,10.62-14.46,15.89-6.33,6.88-7.64,14.71-3.85,23.11,3.14,7,6.83,13.7,10.35,20.49,1.93,3.72,4.88,5.52,9.28,5.46,6.4-.08,11.87,2,14.35,8.61,2.35,6.3-.51,11.3-7.15,11.72-6.47.4-13.12.89-19.42-.22-4.2-.74-9.13-3.28-11.66-6.59a224.6,224.6,0,0,1-28.61-49,20.8,20.8,0,0,1,.52-17.87c4.94-10.25,7.76-20.85,5.81-32.4-.25-1.52.88-4.23,2.15-4.88,5.57-2.86,11.2-6.23,17.21-7.46C199.75,340.17,213.49,343,227.59,347.18Z"/></svg>