<svg id="Layer_1" data-name="Layer 1" xmlns="http://www.w3.org/2000/svg" width="200mm" height="200mm" viewBox="0 0 566.93 566.93"><path d="M378.61,426.12c13.29,6.09,23.76,18,40.28,17.68,4.3-.08,9.46,2.51,12.81,5.47,6.09,5.39,3.82,12.69-4.17,13.71-12.25,1.56-24.56,1.74-36.53-2.53-16.61-5.92-33.3-11.64-49.93-17.52-3.75-1.33-7.35-3.11-11.11-4.41s-7.77-2.37-11.68-3.47c-6-1.7-9.71-5.76-11.47-11.52-2.18-7.14-6.81-10.28-14.21-11-17.53-1.74-33.06-8.63-46.75-19.71-5.8-4.69-6.06-4.28-9.41,1.1-1.74,2.79-4.36,5-6.52,7.56-4.53,5.37-4.71,9,0,14.05,4.08,4.37,8.3,8.76,13.13,12.22a25.88,25.88,0,0,0,11.33,4c5.06.69,9.51,1.86,12.37,6.35s1.23,9.64-4.11,10.29c-12.94,1.58-25.89,3-36.87-7.07-9.59-8.76-19.73-16.9-29.57-25.38-6-5.17-8.15-11.42-5.55-19.26,1.52-4.58,2.22-9.4-1.39-14.47-1.77,1.42-3.45,2.61-4.95,4a59.45,59.45,0,0,1-24,13.82c-8.47,2.5-10.59,5.89-9.69,14.84.45,4.46,1.35,8.89,2.13,13.31,1.11,6.26,3.81,11.05,10.33,13.5a11,11,0,0,1,6.77,11.67c-.71,3.81-4.61,6.21-10.61,6.53-17.91,1-22.23-1.62-26.69-18.94-3.77-14.64-6.4-29.59-9.24-44.45a16.39,16.39,0,0,1,4.28-14.85c9.89-10.39,11.71-22.84,9.28-36.26-.95-5.22-1.32-11.47-4.43-15.15-4.8-5.69-3.55-11.88-4-17.8a73.9,73.9,0,0,1,1.28-19.27c.85-4.65,3-9.15,5.18-13.47a19.06,19.06,0,0,0,.55-15.95,24.48,24.48,0,0,0-2.68-5.9c-9.39-12.81-11.66-28.52-17.3-42.84-1.44-3.65,0-8.34-.51-12.47-1.75-13.83-2.53-27.74,1.35-41.19,2.17-7.51,5.44-15.33,10.32-21.27,6.13-7.45,14.34-13.23,21.87-19.46,1.33-1.1,3.7-4.31,5.81-.15.16.3,2.44-.41,3.7-.74,11.48-3,22.79-2.75,33.78,2,1.71.74,5,.83,3.51,4.56-.19.48,1.64,1.85,2.63,2.7,9.56,8.08,13.46,18.36,11.89,30.72a22,22,0,0,1-1.36,5.3c-1.47,3.65-4,6.33-8.2,6.2-3.94-.12-6.31-2.72-7.58-6.29a17.9,17.9,0,0,1-1.26-4.81c-1-14.73-17.72-22.16-31.68-15.24-11.81,5.86-17.35,16.49-18.75,29-2.52,22.56,3.23,43.24,15.82,62.13,5.46,8.19,12,11.46,22.37,9.65,46.4-8.08,84.77,6,114.07,43.37a14.58,14.58,0,0,1,.93,1.18c7,11.17,16,18.36,30.11,19.07,5.73.29,11.58,4,16.8,7.07,5.43,3.24,10.4,3.95,16,1,11.26-5.95,23.83-9.44,33.47-18.44,2.1-2,5.12-3.13,7.9-4.18,4.87-1.84,7.69,0,8.35,5.22a37,37,0,0,1,.2,7c-.29,4.48,1.65,5.14,5.46,3.8,7.22-2.55,14.51-4.93,21.79-7.29,1.68-.54,3.48-.72,6.95-1.41-1.49,3.18-2.17,5.21-3.31,7-3.54,5.44-7.63,10.56-10.71,16.24a10.07,10.07,0,0,0-.08,8.24c5.61,10.36,6.92,20.57,1.88,31.6-1.26,2.75-.91,6.5-.51,9.69.69,5.42-1.14,10.47-5.92,13.13a107.07,107.07,0,0,1-11.66,5.53c-5.25,2.12-9.86,0-14.77-2.1-5.7-2.41-11.88-3.79-18-5.1-1.49-.32-3.42,1.35-5.15,2.1,1,1.54,1.77,3.39,3.13,4.52a19.9,19.9,0,0,0,5.35,2.63c12.67,5,25.31,10.14,38.06,15a46.45,46.45,0,0,0,10.16,2.26c5.13.71,9.75,2.3,13.07,6.47,2.48,3.1,3.22,6.6,1.36,10.27s-5.34,4.72-9.25,4.59c-10.34-.34-20.19-2.95-30.14-5.61-8.28-2.2-16.94-3-25.44-4.39Z"/><path d="M493.72,439.59A22.66,22.66,0,1,1,471,416.68C483.68,416.68,493.63,426.72,493.72,439.59Z"/></svg>