<svg id="Layer_1" data-name="Layer 1" xmlns="http://www.w3.org/2000/svg" width="200mm" height="200mm" viewBox="0 0 566.93 566.93"><path d="M56,324.82c2.54-1.44,5.08-2.89,7.63-4.32,13.51-7.6,32.06-5.93,43.71,4a53.68,53.68,0,0,1,6.9,6.28c2,2.34,3.26,5.22,5.13,8.34,4.37-7,6.33-14.21,2.88-21.48a56,56,0,0,0-10.15-14.21c-8.55-9-18-17.05-26.4-26.17a165.77,165.77,0,0,1-16.16-21.58C66,250.17,64,244,69.27,238c.5-.57.16-1.89.17-2.86,0-5.36,3.69-7.59,8.76-4.81-.44-1.25-.75-2.15-1.06-3.06,4.81-2.87,8.38-1.65,12.76,3.26,1.27.6,3.17.86,3.68,1.85a23.15,23.15,0,0,1,2.74,8c.89,8.83,4.77,15.84,12.2,20.55,9.08,5.75,18.25,11.42,27.7,16.52,12.53,6.78,24,14.79,31.6,27,9.45,15.15,23.48,18.63,39.69,16.14a150.89,150.89,0,0,0,25.09-6.16c29.32-9.83,58.88-10.66,88.82-3.45,3.64.88,7.36,1.49,11,2.46,11.88,3.18,23.75,2.48,35.74.56,19.57-3.14,39.07-3.14,57.59,4.84,8.55,3.69,16.6,8.71,24.48,13.74a203.05,203.05,0,0,1,18.6,14c5.59,4.56,11.25,8.69,18.57,10a17,17,0,0,1,5.39,2.56q27.42,16.67,54.77,33.43c2.82,1.73,5.9,3.29,7.15,8l-13.08-3.36c2.11,2.31,6.78,4.1,11.52,4.2,3.69.07,7.25,6.34,5.12,9.36a4.12,4.12,0,0,1-3.55,1c-4.57-1.09-9.05-2.52-13.78-3.49a69.71,69.71,0,0,0,7.67,3.54,72.48,72.48,0,0,0,8.38,1.79c-2.05,5.51-6.19,7.69-11.36,5.72-3.89-1.48-7.65-3.33-11.75-4.47l7.61,4.74c-4.45.68-14.73-1.56-18.79-4.35-8-5.53-15.85-11.41-24-16.77a75.58,75.58,0,0,0-13.82-7.26c-10.1-4-20.18-8.38-30.68-10.84-12.48-2.92-25.39-4-38.11-5.82l-.17,1.16,22.84,3.77C441.45,394.5,452,404.37,467,406c4,.43,8.05-.15,12,.45,5.5.83,11.49,1.21,16.22,3.74,13.33,7.13,27.85,9.5,42.29,12.43,2.69.55,5.54.64,8.07,1.6a22,22,0,0,1,7.24,4.38c1.32,1.26,1.54,3.67,2.26,5.56a29.15,29.15,0,0,1-5.36.74,43.79,43.79,0,0,1-6.14-1.05c-.05.44-.11.88-.16,1.31,3.22.34,6.51,1.21,9.66.86a5.11,5.11,0,0,1,5.78,3.59,15.66,15.66,0,0,1,.76,7.42c-.08.72-3,1.75-4.37,1.52-4.15-.68-8.21-1.92-12.8-3.07,4.78,3.58,10,4.29,15.34,4.54-1,4.49-5.42,7.46-9.32,6.28s-7.94-2.69-11.9-4l-.37.87,12.87,5.33c-4.23,1.87-8.45.59-12.41-.95-9.08-3.54-18-7.52-27-11.16a119.2,119.2,0,0,0-46.84-9A293.26,293.26,0,0,1,378.25,426a182,182,0,0,0-43.71-6.34c-26.52-.85-53-2.33-79.54-3.4-6.49-.26-13,0-19.51.12-2.05.05-3.2-.16-4.23-2.41-1.41-3.1-3.8-5.76-5.88-8.77-.1.17,0-.18.15-.21,9.11-1.74,12.43-8.28,13.85-16.51,1-5.67-1.68-10.07-6.55-13.06-7.56-4.64-14.81-3.77-22.51-.67A148.13,148.13,0,0,1,193.93,380a7.32,7.32,0,0,1-4.77-.78c-7.91-4-16.1-5.57-24.83-3.47a49.59,49.59,0,0,1,25.3,5.27c-10.08,3.11-19.27,7-21.29,18.35-1.92,10.76,3.53,18.75,11.75,26.11a104.85,104.85,0,0,1-34.77-1.35c-11.06-2.44-21.93-5.76-33.24-8.79,10.38-14,14.31-30.25,14.85-47,3.13.82,6,1.88,9,2.18,1.06.11,2.58-1.43,3.42-2.57a6.54,6.54,0,0,0-1.18-8.5c-3-2.52-5.43-1.83-11.06,3.22l-4.2-17.46-1,.23,3.36,18.44c1.92,0,3.83,1,5.27-1.79.65-1.24,3.46-2.35,4.83-1.95a5.61,5.61,0,0,1,3.21,4.21,5.74,5.74,0,0,1-2.85,4.53c-1.35.52-3.48-.81-5.2-1.5-.44-.18-.63-1-1-1.65l-3.85.48c-.9,6.93-1.43,13.8-2.74,20.52a67.6,67.6,0,0,1-11.64,27c-2,2.77-4.16,3.76-7.44,1.87,13.24-19.28,16.89-41.12,17.44-63.77-1.21,16.8-4.36,33.25-11.24,48.69-7.67,17.2-5.69,15.74-24.74,16.35a95.92,95.92,0,0,1-39-6.55c-2.64-1.06-5.87-1.09-8.78-.9-9,.58-17.77.09-26.1-3.71-.91-.41-1.81-.87-2.68-1.37-6.85-3.94-7.2-8.65-.61-13.18,3.79-2.6,8-4.52,12.12-6.72q2.31-1.26,4.68-2.37c7.53-3.51,12.37-8.44,12.8-17.62.28-6.23,2.89-12.35,4.48-18.51.41-1.58.79-2.69-.53-4.5-4.78-6.56-9-13.51-13.46-20.32a5.48,5.48,0,0,1-.89-1.64c-.37-1.75-.61-3.52-.91-5.28,1.78,0,3.78-.58,5.29,0,8.19,3.37,16.25,7,24.36,10.58l-5.54,3-2.14-3.13v4.82c-1.6-2.12-2.81-3.71-4.56-6,.66,2.5,1.09,4.14,1.52,5.79l-.53.2-4.53-6-.86.69,7.08,9-.38.48-16.9-15.87c4.2,6.95,10.25,12.12,16.34,17.25a2.68,2.68,0,0,0,2.53-.49C50.86,331.45,53.41,328.11,56,324.82Zm16.38,4.37-.11-.1-7.83,1c5.4,3.47,15.52.49,18.19-5.69L78,327.43c-.56-1.71-.92-3-1.44-4.29s-1.21-2.37-1.83-3.56C69.88,322.41,69.14,326,72.41,329.19Zm23.5-79.69c-2.36-2-4.09-3.86-6.21-5.07a4.53,4.53,0,0,0-4,.39,8.56,8.56,0,0,0-2.62,4,13.17,13.17,0,0,0-.66,4.68,35.29,35.29,0,0,0,.79,5,33.37,33.37,0,0,0,3.72-2c2.24-1.6,4.37-3.36,6.55-5C94.05,250.88,94.66,250.43,95.91,249.5ZM38.85,398.26c2.42.08,3.93-.18,2.39-3.11s-2.8-6-4.2-9c-6.29,1.21-13.58,5.08-15.58,8.12L34.77,389,26,396.76l.39.3L37,391.31l.33.65q-1.92,3-3.86,6l.45.42L39.25,395C39.06,396.51,39,397.31,38.85,398.26Zm61.44-47.47,1.15-.15c-.4-5.93-.8-11.86-1.21-17.85l5.53-2.79c-5.34,2.15-9.07-.25-12.47-3.83-.52-.55-1-1.35-1.61-1.52-1.21-.32-2.79-.77-3.74-.27-2.22,1.16-4.43,9.88-3.37,12.84l3.79-2.06c4.13,2.64,5.89,2.27,8.53-2.21-2.78,2-5.56,4.14-8.12.34l-3.14,1.51-.8-.51,4-9.49C100.48,330.61,99.82,340.94,100.29,350.79ZM18.07,404.73c9,4,18,1.26,27-.56.87-.18,1.82-2.26,1.87-3.49,0-.79-1.52-1.65-2.36-2.48l-.63.7c1.92,2.84,1.86,3.86-.64,4.3C35,404.69,26.74,407.15,18.07,404.73Zm328.32-15c7.61-6.88,16.63-10.62,26.7-12.06C362.18,377.28,353.13,381,346.39,389.76ZM79.46,387.91l.94.29q3.51-18.45,7-36.92l-1.07-.2Q82.92,369.5,79.46,387.91ZM94,387l-3.39-33.71A103,103,0,0,0,94,387Zm265.92-24.8a41,41,0,0,0,23.77,12.53Zm-291-13.82c-7.61,1.51-12.23,10.37-10,20.1C59.79,359.9,62,353,68.9,348.42Zm16.57,1.07L84.35,349q-7.26,15.85-14.53,31.72l.82.38Q78.07,365.27,85.47,349.49Zm2.72-113.76-5.61-4.6c-.6,1-2,2.4-1.67,3a35.2,35.2,0,0,0,3.79,5.18Zm-5.69,7.46a66.25,66.25,0,0,0-6.22-4.5c-.28-.16-2.27,1.8-2.16,2a25.49,25.49,0,0,0,4,5.18C78.34,246.07,80.19,244.62,82.5,243.19ZM12.41,392.08l.75,1.44c7.12-4.82,16.48-4.46,22.94-10.8ZM74.64,247.42c-1.26,1.65-2.48,2.9-2.33,3.09a31.38,31.38,0,0,0,4.28,4.42c.09.07,2.24-1.81,2.12-2A57.91,57.91,0,0,0,74.64,247.42ZM89.21,236.5c1.33,1.94,2.39,3.46,3.44,5,.75-1.11,2.29-2.43,2.07-3.29-.42-1.59-1.87-2.91-2.89-4.34Zm1.39,32.29.21-1.41a42.23,42.23,0,0,0-4.6-2.55c-.3-.12-1.14,1.05-1.73,1.62A29.92,29.92,0,0,0,88.24,270C88.58,270.24,89.79,269.23,90.6,268.79Zm89.9,59.67-13.29-10.54C170.32,323.47,174.6,327.05,180.5,328.46Z"/><path d="M557.34,457.62c1.44,4.54,0,8.13-4.55,8.88a38.44,38.44,0,0,1-13.61-.35c-4.21-.86-8.22-3-12.16-4.85-20.79-9.92-42.6-15.33-65.7-14.67-28.6.82-56.69-2.88-84.55-8.88a354.47,354.47,0,0,0-67.07-7.55c-20.27-.43-40.55-.17-60.83-.3-4.89,0-8.66,1.34-12.06,5.34-6.8,8-16.45,9.17-26.13,8.53a95.32,95.32,0,0,1-19.9-3.51c-9-2.58-18.09-3.55-27.32-4.47a273.15,273.15,0,0,1-33-5.09,148.07,148.07,0,0,0-41.74-3.4,124.42,124.42,0,0,1-36.83-3.54c-8.17-2-16.83-1.88-25.28-2.7-3.49-.34-7-.51-10.45-1.06-1-.16-1.86-1.33-2.78-2,.77-.74,1.42-1.89,2.32-2.15a85.38,85.38,0,0,1,11.63-2.75A79,79,0,0,1,39,412.66a18.35,18.35,0,0,1,5.85,1,114,114,0,0,0,51,6.08c10-1,20-.63,29.58,2.51a150.16,150.16,0,0,0,54.43,6.93,10.92,10.92,0,0,1,5.85,1.77,43.53,43.53,0,0,0,22.76,6.7c12.13.14,20.8-6.18,24.55-17.85,11.93,0,23.94-.37,35.91.08,23,.86,46,2.54,69,3.21,17.22.5,33.61,4.89,50.11,9,22.34,5.55,45,8.95,68,8.34,22.48-.59,43.39,4.49,63.66,13.52q8.57,3.81,17.37,7.06c6.76,2.52,13.26,2.34,19-2.81A4.35,4.35,0,0,1,557.34,457.62Z"/><path d="M234.87,393.91a10.76,10.76,0,0,1-8.65,8c-9.75,2.08-19.59,3.75-29.39,5.57-.83.15-1.68.16-2.52.23,0,.37.06.74.08,1.12,6.86-.61,13.73-1,20.55-1.89,7.1-.91,10.79.91,13.71,7.49,1.67,3.77,1.18,7.16-1.27,10.56-7,9.77-16.68,11-27.42,8.5a45.24,45.24,0,0,1-22.39-13,24.67,24.67,0,0,1-7-15.78c-.57-7.71,2.45-13.66,9.33-17.39a32.65,32.65,0,0,1,5.86-2.44c10-3.12,20-6.26,30.05-9.15,3-.86,6.25-.95,9.38-1.39l.3,1L221,379.21c3.07-.88,5.54-2.24,7.89-2.07s4.31,1.95,7.13,3.37l-7.18,3.73.4.87c1.48-.54,2.94-1.11,4.42-1.59,2.3-.75,3.48.32,3.27,2.53-.3,3,.09,6.55-4.67,6.61-1.23,0-2.46.93-3.54,2Z"/><path d="M497.51,359.37c5.05-2.29,9.48-4,13.62-6.25,20-10.85,28-27,24.82-49.52-.3-2.09-.94-4.4-.39-6.3.71-2.43,2-5.25,3.92-6.63,2.62-1.88,5.9-.47,7.62,2,2.7,3.83,5.51,7.87,7,12.25,5.72,17.28,1.89,33.31-7.62,48.27a68.93,68.93,0,0,1-20.27,20.3c-1.88,1.26-3.39,1.55-5.4.28C513.2,369,505.53,364.31,497.51,359.37Z"/><path d="M440.7,380.53c14.53,1.72,26.52,6.46,38.35,12.61-3.81.51-7.6,1.23-11.42,1.47-4.86.31-9.74.08-14.6.37a7,7,0,0,1-7.31-4C444.1,387.81,442.65,384.59,440.7,380.53Z"/><path d="M72.41,329.19c.12-2.2.24-4.41.37-6.61l1.69-.08a53.85,53.85,0,0,1,1.06,5.84,20.16,20.16,0,0,1-3.23.75Z"/></svg>