<svg id="Layer_1" data-name="Layer 1" xmlns="http://www.w3.org/2000/svg" width="200mm" height="200mm" viewBox="0 0 566.93 566.93"><defs><style>.cls-1{fill:none;stroke:#000;stroke-miterlimit:10;}</style></defs><path d="M141.63,167.16c.49.37.93,1,1.48,1.09,13.36,3.14,26.73,6.24,39.23,9.14a152.49,152.49,0,0,0-39.83-10.34l3.06-5.77-3.29,1.87-.95-.74,9.36-11.87-2.11-.36a8.66,8.66,0,0,1,.69-1c6.19-6.08,12.5-12,18.47-18.32,1.25-1.32,1.58-3.84,1.72-5.85.88-12.68,1.24-25.4,2.51-38,.47-4.65,2.74-9.19,4.6-13.6,1.4-3.33,4.42-4.47,7.7-2.95,3.61,1.67,7.42,3.38,10.34,6C202,83,209.06,90,216,97.06c2.3,2.35,4.24,3.3,7.63,2.7a101.56,101.56,0,0,1,50,3.58,5.93,5.93,0,0,0,6.17-1.08c8.44-6.37,17-12.63,25.69-18.61a40.21,40.21,0,0,1,9.81-4.55c6.51-2.22,10.25-.9,12.31,5.68,2.33,7.48,4.29,15.33,4.62,23.09.39,9.43-.92,18.95-1.87,28.4-.31,3-.35,5.64,1.35,8.35,5,7.93,9.71,16,14.46,23.87l-4-2.07,10.67,19.12-.83.57-5.63-6.25c4.39,12.13,14.67,16.87,25.68,21.18l-4.71.3-.27,1,14.56,3.84,0,.55-6.15.9,21.56,12.29-.59,1.17-10-4.17-.54,1,27.12,17.13-.47,1L406,233.45c9.62,6.84,20.4,12.23,27.4,23.75L420.82,248l-.66.72c9.58,9,19.65,17.6,25.36,30l-8.82-9.5-1.12,1c7.46,9.42,16.74,17.6,20.38,29.67L447.74,290c6.53,14.13,17.64,25.9,20.26,42q-4.5-7.1-9-14.19l-1,.46c7,14.4,16.73,27.8,17.73,45.57l-8.09-17.42c3.61,17,10.69,33.23,8.84,52.11-1.55-6.25-2.86-11.51-4.16-16.76l-1.13.13c3,16.53,6.39,33.06.35,49.62V417l-1.49-.06c-.39,7.79-1.34,15.6-.87,23.33.18,3.12,3.17,6.3,5.41,9,2.88,3.5,6.39,6.48,9.42,9.88a12.23,12.23,0,0,1,2.49,5.33l-6.18-5.83c5.72,7.84,9.72,16.09,8.43,26.21-.95-2.79-1.91-5.58-3.19-9.3-1,21.57-1.15,22.21-5,26.45.43-2.67.8-5,1.16-7.3-4.11,8.8-8,17.57-17.85,21.76l5.15-7.68c-14.08,14.17-32.11,19.42-50.93,23l12.59-5.74c-.1-.22-.19-.45-.28-.68-6.67,2.25-13.24,4.82-20,6.66s-13.77,2.94-20.66,4.36l-.33-1.37,13.82-3.82c-.06-.29-.13-.58-.2-.86l-35.29,5.51-.2-.86,6.09-2-.16-.72L329,536.85l-.21-1.31,10.53-2.11c-19.54.12-39,.16-58-5.63a18.44,18.44,0,0,1,2-.21,10,10,0,0,0,2.51-.15c-13.75-5.1-28.48-9-30.85-27.71-1.79,5-.27,9,2.11,12.52s5.53,6.39,8.62,9.86c-4,4.4-9.53,6.56-15.9,6.56-1.12,0-2.86-1.62-3.22-2.82-.74-2.5-.75-5.21-2-7.92-.2,3.39-.39,6.78-.62,10.83-3.78,1-8.88,1.34-11.78-1.65-2.52-2.61-2.65-7.54-3.87-11.55-.26,3.29-.54,6.87-.82,10.43-6.15-.71-9.64-6.25-8.12-13.75a15.22,15.22,0,0,1,1.87-5.27c5.38-8.16,6.75-17.44,7.43-26.83,1.55-21.61-.58-43.05-3.81-64.44.43,11.44,1.28,22.89,1.18,34.33-.12,13.24-.76,26.5-1.83,39.7-.36,4.53-2.31,9.09-4.26,13.29-2.63,5.65-4.27,11.25-2.68,17.6a19,19,0,0,1-13.22,3.81c-1.47-.14-3.53-2.1-3.94-3.6-.81-3-.66-6.19-.91-9.44-2.66,4.07-2,8.33-.65,12.59-12.71,2.75-15.24-2.56-14.34-14-2.36,2.71-2.44,3.55-1.2,12.16-7.05.22-11.74-5.36-10.26-12.65a13.74,13.74,0,0,1,3.17-6.8c3.57-3.55,3.82-7.67,2.69-11.87-3.07-11.35-5.45-23-10-33.79-8.31-19.58-18-38.59-27.13-57.8a139.79,139.79,0,0,0-9.92-17.79c2.43,5.31,4.9,10.59,7.27,15.92,9.53,21.41,19.39,42.68,28.36,64.33,3.76,9.08,5.73,18.93,8.18,28.51.66,2.56.1,5.44.1,8.18l-1.22.89c-5.47-3.21-11.21-6.05-16.32-9.76a93.61,93.61,0,0,1-14.11-13.18l4.29,7.21c-3.47-1.14-7.48-5.73-10.78-12.75-2.43-5.16-4.7-10.41-7-15.62l-1.09.34,3.22,11-1.08.48c-1.9-4.33-4.18-8.54-5.6-13a111,111,0,0,1-3.13-14.5c-.84-4.82-1.38-9.69-2.9-14.52V435.6c-5.66-11.87-2.14-23.85-.71-35.79l-1-.22c-.94,2.8-1.87,5.61-3.16,9.47-1.1-10.91,3.3-19.78,4.69-29.35q-2.07,4.35-4.15,8.68l-1.24-.24c6.69-17.66,7.92-35.49,1.87-54.45-.17,3-.43,5.21-.39,7.37s.39,4.5.29,6.8c-3.38-6.85-3.64-14.15-3.06-21.59s1.08-14.64,1.62-21.95l-1.61-.24c-.88,4.87-1.75,9.74-2.56,14.29-1.66-3.38-1.66-9.81.5-21.36,1.34-7.2,3-14.35,4.48-21.52l-1.34-.38q-2.32,7.15-4.66,14.33c-.88-17.12,7.16-32.13,11.63-48l-1.06-.53-6,11.15-.67-.15c1-3.39,1.72-6.92,3.16-10.13a60.27,60.27,0,0,1,5.69-9.66c2.13-3.06,4.64-5.85,6.71-9.27L122.32,226l-.43-.67,6.82-6.51c5.22-5,9.43-10.57,11.33-17.72a4.52,4.52,0,0,1,2.79-2.63c12.19-3.09,24.42-6,36.64-8.95a2.41,2.41,0,0,0,1.34-.67,134.53,134.53,0,0,0-34.3,7.06,60.2,60.2,0,0,1-7.15,1.53c-3.15,6.91-12.2,6-18,10.63l-.59-1.09c4.5-2.14,8.94-4.42,13.52-6.38a4.4,4.4,0,0,0,3.08-4c.59-4.22.39-9.81,3-12.15s8.09-1.59,12.33-1.66c7.09-.13,14.2.18,21.3.29,1.66,0,3.33,0,5,0v-1H140.06c.44-2.38.88-4.77,1.53-8.34-1.47,2.1-2.35,3.37-3.24,4.63l-.56-.21,3.84-11Zm81.72,224.22L249.67,371l.94,1c-1.65,2-3.33,4-5,6s-3.31,4.16-4.42,5.56c13.4-5.61,23.45-16.35,31.94-28.85l.83.54c-2.38,4.64-4.75,9.29-7.45,14.58,14.42-8.9,22.4-21.66,26.93-37l1.13.46c-1,5.5-2.05,11-3.22,17.21,10-13.75,10.55-29.09,10.78-44.51l1.08,0c.6,5,1.19,9.93,1.92,16,5.06-14.67,1.33-27.24-3.74-40q3.78,5.22,7.55,10.43c-4-18.7-15.71-31.77-31.34-42.06l4.62-1.76H253.08l-.18.8L266,252.38c-10.06,1.83-19,.11-27.88-3.2l-.35,1,10.44,5.86A46.84,46.84,0,0,1,225,247.34c-.22.35-.44.7-.67,1l5.91,6.72c-7-1.51-11.45-5.8-15-10.91-9.2,5.41-14.86,7.09-19.59,6.07l8.77-4c-17.38,1.05-21.27.8-24.38-2l12.88-.88-.22-.34-22.8-4.44,3.94,3c-12.22,7.06-24.17,13.87-31.23,26.49l8.27-5.86.7.7c-6.68,6.61-12.92,13.48-15,23.67l8.68-10.07C137,295.9,134.55,306,137.46,311c1.6-4.74,3.23-9.59,4.86-14.43.47,7-.15,13.76-.28,20.51-.17,9.45,1.71,16.55,5.31,20.05V322.83c1,11.86,3.11,23.15,10,33.09-.16-2.7-.77-5.28-1.15-7.9s-.47-5-.7-7.55l1-.21c2.61,11.6,7.05,22.17,16.11,30.15-.73-2.47-1.81-4.76-2.64-7.14s-1.31-4.58-1.94-6.87c6.28,11.15,14,20.58,25.31,26.75q-3.42-5.91-6.86-11.82l-.9,1.08,22.84,18.87c-.82-1.7-2.45-5-4.08-8.38l1-.62L216.93,399c1.81-6.57,5-12.42,10.82-16.47C226.19,385.64,224.63,388.78,223.35,391.38Zm96.52-252.31c1.57-6.51,3.2-12.16,4.25-17.91,1.82-9.94,2.25-20-.2-29.89-1.84-7.47-4.35-8.85-10.38-4-7.66,6.17-14.49,13.36-21.63,20.17a14.46,14.46,0,0,0-1.87,2.75c6.9-3.21,12.78-8.24,21.3-9L296.88,110c5.17-.62,10-1.89,15.27.25L297.3,113.8c9.35,2.3,11.07,3.11,12.83,6.67l-8.43-2.3ZM202.43,105.35a14.51,14.51,0,0,0-1.06-3.16c-4.05-6.74-7.91-13.62-12.43-20-1.87-2.65-5.2-4.26-7.87-6.35-1.52,3-3.61,5.94-4.46,9.15-3.09,11.77-3.08,23.83-2.58,35.89a25.49,25.49,0,0,0,.47,3l17-13.27h-8.31l-.11-1,11.51-2.18c-4.11-2-7.31-3.5-10.52-5l.31-1,12.76,3.1-11.06-10c1.92.65,2.93.74,3.63,1.26C193.94,98.77,198.1,102,202.43,105.35ZM274,159.87c0-9.35-7.63-17.38-16.51-17.37-9.32,0-17.32,8.21-17.25,17.67.06,8.72,7.73,15.81,17,15.73S273.94,168.73,274,159.87Zm-67.57-6c0-9.46-5.8-16.24-14-16.36C183.94,137.35,177,145,177,154.28c0,8.68,6.37,15,15,15S206.36,163.06,206.38,153.83ZM320.79,476.66l3.67,4.47-35.9-8.55c13.19-25.43,27-50.94,33.07-79.6-8.43,27.31-22.61,52-35.09,77.48-1.9,3.88-3.76,6.78-9.27,6.9a25.75,25.75,0,0,0-18.7,8.56c10.88-6.7,22.86-7.94,35.35-7.78l-6.8-1.79.33-1.2c14.47,1.36,28.12,6.77,43.12,10l-4.77-4.35c4.46.83,8.39,2.45,12.41,3.76s7.94,2.43,12,3.35,8.1,1.46,12.15,2.17c.05-.29.09-.57.14-.86Zm34.06,7.19c1.43.89,2.75,2.17,4.32,2.61,14.17,3.93,28.55,5.79,43.27,4,15-1.85,29.21-5.68,40.7-16.27,1.71-1.59,3.11-3.52,5.05-5.74C419.53,492.2,387.94,491.87,354.85,483.85Zm-131.4-307c-3-3.73-12.38-5.78-15.43-3.87-.61.38-.9,2.69-.66,2.81,2.84,1.47,2.77,4.59,4.19,6.79,2.24,3.47,1.06,6-1.57,8-1.9,1.45-4.36,2.16-6.65,3.23,3.77,1.75,6.56-1,9.56-2.53,7.42,6.07,7.42,6.07,10.92,5-7.78-3.58-12.27-5.89-6.85-17.33ZM372.09,372.5c-20.3,3.63-44.18,20.1-46.84,31.91C348.12,383,348.12,383,372.09,372.5ZM319.37,190.15c-22.76-7.17-46-8.5-69.64-5.31C273.12,183.69,296.38,184.32,319.37,190.15Zm-70.1-.24a294.27,294.27,0,0,1,70.22,21.89C297.35,200.4,274.22,192.19,249.27,189.91Zm52.34,34.63c-14.09-11.06-31-21.55-47.7-27.59Zm15.1,196.65,16.35-20.81C326.18,404.48,318.44,414.5,316.71,421.19ZM265.16,486.1c-7.58.86-15,9.33-13.58,16.18C253.78,494.33,258.92,489.73,265.16,486.1ZM310.05,440l1.38.54q4.71-10,9.44-19.92l-1.16-.55ZM278.88,244l.06,1.25,15.69-2.83-.17-1ZM174,234.5l.34-1.05-12.51-3.91-.3.93ZM313.28,445.65l-1.31-.2q-1.14,6-2.27,11.93l.87.17Q311.94,451.6,313.28,445.65Z"/><path d="M257,161.45a1.5,1.5,0,0,0,0-3,1.5,1.5,0,0,0,0,3Z"/><circle class="cls-1" cx="191.45" cy="155.5" r="4.43"/><circle class="cls-1" cx="257.07" cy="159.95" r="4.43"/><path d="M191.34,157.15a1.5,1.5,0,0,0,0-3,1.5,1.5,0,0,0,0,3Z"/></svg>